<svg data-v-423bf9ae="" xmlns="http://www.w3.org/2000/svg" viewBox="0 0 715 90" class="iconLeft"><!----><!----><!----><g data-v-423bf9ae="" id="c8030041-48c2-4e92-8b10-ac3523b12813" fill="#213210" transform="matrix(6.62251615524292,0,0,6.62251615524292,115.04999542236328,-21.953641891479492)"><path d="M2.24 6.19L2.24 14.03L3.47 14.03L3.47 14.03Q5.27 14.03 6.37 12.95L6.37 12.95L6.37 12.95Q7.46 11.87 7.46 10.12L7.46 10.12L7.46 10.12Q7.46 8.20 6.41 7.18L6.41 7.18L6.41 7.18Q5.36 6.16 3.42 6.16L3.42 6.16L3.42 6.16Q2.43 6.16 2.24 6.19L2.24 6.19ZM3.28 14.40L0.33 14.40L0.39 14.11L1.54 13.90L1.54 6.51L0.37 6.36L0.44 6.12L0.44 6.12Q2.52 5.79 3.68 5.79L3.68 5.79L3.68 5.79Q4.64 5.79 5.42 6.03L5.42 6.03L5.42 6.03Q6.19 6.26 6.71 6.66L6.71 6.66L6.71 6.66Q7.22 7.05 7.56 7.59L7.56 7.59L7.56 7.59Q7.90 8.13 8.05 8.71L8.05 8.71L8.05 8.71Q8.20 9.29 8.20 9.92L8.20 9.92L8.20 9.92Q8.20 10.64 8.03 11.28L8.03 11.28L8.03 11.28Q7.86 11.93 7.48 12.50L7.48 12.50L7.48 12.50Q7.10 13.08 6.53 13.49L6.53 13.49L6.53 13.49Q5.97 13.91 5.14 14.15L5.14 14.15L5.14 14.15Q4.31 14.40 3.28 14.40L3.28 14.40ZM9.88 6.24L9.88 6.24L9.88 6.24Q9.88 5.58 10.30 5.58L10.30 5.58L10.30 5.58Q10.74 5.58 10.74 6.24L10.74 6.24L10.74 6.24Q10.74 6.94 10.31 6.94L10.31 6.94L10.31 6.94Q9.88 6.94 9.88 6.24ZM11.67 14.40L8.89 14.40L8.98 14.18L10.01 13.99L10.01 9.01L8.96 8.82L8.98 8.63L10.60 8.50L10.65 8.56L10.65 13.99L11.74 14.17L11.67 14.40ZM12.41 13.25L12.41 13.25L12.41 13.25Q12.41 12.78 12.96 12.65L12.96 12.65L12.96 12.65Q13.10 13.56 13.43 13.92L13.43 13.92L13.43 13.92Q13.75 14.29 14.44 14.29L14.44 14.29L14.44 14.29Q14.94 14.29 15.26 14L15.26 14L15.26 14Q15.58 13.71 15.58 13.34L15.58 13.34L15.58 13.34Q15.58 13.04 15.37 12.75L15.37 12.75L15.37 12.75Q15.16 12.46 14.85 12.25L14.85 12.25L14.85 12.25Q14.53 12.04 14.17 11.79L14.17 11.79L14.17 11.79Q13.80 11.54 13.49 11.30L13.49 11.30L13.49 11.30Q13.17 11.06 12.96 10.71L12.96 10.71L12.96 10.71Q12.76 10.36 12.76 9.96L12.76 9.96L12.76 9.96Q12.76 9.30 13.19 8.85L13.19 8.85L13.19 8.85Q13.63 8.40 14.49 8.40L14.49 8.40L14.49 8.40Q15.13 8.40 15.56 8.79L15.56 8.79L15.56 8.79Q15.98 9.17 15.98 9.67L15.98 9.67L15.98 9.67Q15.98 10.21 15.50 10.26L15.50 10.26L15.44 10.02L15.44 10.02Q15.24 9.27 14.96 8.99L14.96 8.99L14.96 8.99Q14.68 8.70 14.33 8.70L14.33 8.70L14.33 8.70Q13.83 8.70 13.56 8.93L13.56 8.93L13.56 8.93Q13.29 9.15 13.29 9.58L13.29 9.58L13.29 9.58Q13.29 9.88 13.45 10.15L13.45 10.15L13.45 10.15Q13.61 10.42 13.87 10.63L13.87 10.63L13.87 10.63Q14.12 10.84 14.43 11.04L14.43 11.04L14.43 11.04Q14.74 11.25 15.05 11.45L15.05 11.45L15.05 11.45Q15.36 11.66 15.62 11.88L15.62 11.88L15.62 11.88Q15.87 12.11 16.03 12.39L16.03 12.39L16.03 12.39Q16.19 12.67 16.19 13.00L16.19 13.00L16.19 13.00Q16.19 13.73 15.62 14.19L15.62 14.19L15.62 14.19Q15.04 14.64 14.22 14.64L14.22 14.64L14.22 14.64Q13.47 14.64 12.94 14.26L12.94 14.26L12.94 14.26Q12.41 13.88 12.41 13.25ZM16.95 11.70L16.95 11.70L16.95 11.70Q16.95 10.20 17.66 9.31L17.66 9.31L17.66 9.31Q18.38 8.42 19.51 8.42L19.51 8.42L19.51 8.42Q20.30 8.42 20.66 8.76L20.66 8.76L20.66 8.76Q21.02 9.10 21.02 9.57L21.02 9.57L21.02 9.57Q21.02 10.08 20.58 10.21L20.58 10.21L20.58 10.21Q20.33 9.49 20.02 9.16L20.02 9.16L20.02 9.16Q19.70 8.84 19.18 8.84L19.18 8.84L19.18 8.84Q18.53 8.84 18.08 9.48L18.08 9.48L18.08 9.48Q17.63 10.12 17.63 11.30L17.63 11.30L17.63 11.30Q17.63 14.09 19.58 14.09L19.58 14.09L19.58 14.09Q20.04 14.09 20.47 13.89L20.47 13.89L20.47 13.89Q20.90 13.69 21.18 13.41L21.18 13.41L21.31 13.64L21.31 13.64Q21.05 14.03 20.48 14.31L20.48 14.31L20.48 14.31Q19.90 14.59 19.25 14.59L19.25 14.59L19.25 14.59Q18.15 14.59 17.55 13.78L17.55 13.78L17.55 13.78Q16.95 12.97 16.95 11.70ZM22.74 11.20L22.74 11.20L22.74 11.20Q22.74 12.44 23.31 13.29L23.31 13.29L23.31 13.29Q23.89 14.14 24.83 14.14L24.83 14.14L24.83 14.14Q25.57 14.14 26.02 13.44L26.02 13.44L26.02 13.44Q26.48 12.74 26.48 11.66L26.48 11.66L26.48 11.66Q26.48 10.94 26.24 10.30L26.24 10.30L26.24 10.30Q26.00 9.67 25.53 9.25L25.53 9.25L25.53 9.25Q25.06 8.84 24.46 8.84L24.46 8.84L24.46 8.84Q23.69 8.84 23.21 9.51L23.21 9.51L23.21 9.51Q22.74 10.19 22.74 11.20ZM22.02 11.69L22.02 11.69L22.02 11.69Q22.02 10.18 22.80 9.28L22.80 9.28L22.80 9.28Q23.58 8.39 24.76 8.39L24.76 8.39L24.76 8.39Q25.48 8.39 26.05 8.81L26.05 8.81L26.05 8.81Q26.61 9.23 26.91 9.92L26.91 9.92L26.91 9.92Q27.20 10.60 27.20 11.41L27.20 11.41L27.20 11.41Q27.20 12.81 26.43 13.70L26.43 13.70L26.43 13.70Q25.66 14.58 24.58 14.58L24.58 14.58L24.58 14.58Q23.47 14.58 22.75 13.79L22.75 13.79L22.75 13.79Q22.02 13.00 22.02 11.69ZM28.96 9.02L27.90 8.82L27.92 8.63L29.50 8.50L29.55 8.56L29.55 12.23L29.55 12.23Q29.55 13.99 30.83 13.99L30.83 13.99L30.83 13.99Q31.26 13.99 31.68 13.74L31.68 13.74L31.68 13.74Q32.11 13.48 32.39 13.15L32.39 13.15L32.39 9.02L31.33 8.82L31.34 8.63L32.96 8.50L33.01 8.56L33.01 12.82L33.01 12.82Q33.01 13.06 33.02 13.21L33.02 13.21L33.02 13.21Q33.02 13.35 33.06 13.52L33.06 13.52L33.06 13.52Q33.09 13.69 33.16 13.78L33.16 13.78L33.16 13.78Q33.22 13.87 33.34 13.95L33.34 13.95L33.34 13.95Q33.46 14.03 33.63 14.05L33.63 14.05L34.06 14.14L34.02 14.38L34.02 14.38Q33.69 14.52 33.32 14.52L33.32 14.52L33.32 14.52Q32.92 14.52 32.69 14.25L32.69 14.25L32.69 14.25Q32.46 13.98 32.46 13.60L32.46 13.60L32.46 13.49L32.39 13.49L32.39 13.49Q32.04 14 31.55 14.28L31.55 14.28L31.55 14.28Q31.06 14.56 30.55 14.56L30.55 14.56L30.55 14.56Q28.96 14.56 28.96 12.46L28.96 12.46L28.96 9.02ZM37.42 14.40L34.75 14.40L34.80 14.18L35.85 14.01L35.85 9.01L34.80 8.83L34.82 8.63L36.42 8.50L36.46 8.56L36.43 9.50L36.48 9.50L36.48 9.50Q36.77 9.11 37.40 8.75L37.40 8.75L37.40 8.75Q38.02 8.38 38.67 8.38L38.67 8.38L38.67 8.38Q39.33 8.38 39.76 8.87L39.76 8.87L39.76 8.87Q40.18 9.36 40.18 10.40L40.18 10.40L40.18 14.01L41.12 14.14L41.10 14.40L38.52 14.40L38.56 14.18L39.53 14.01L39.53 10.58L39.53 10.58Q39.53 9.73 39.21 9.32L39.21 9.32L39.21 9.32Q38.88 8.92 38.40 8.92L38.40 8.92L38.40 8.92Q37.82 8.92 37.44 9.12L37.44 9.12L37.44 9.12Q37.06 9.31 36.49 9.85L36.49 9.85L36.49 14.01L37.46 14.15L37.42 14.40ZM42.64 9.21L41.78 9.21L41.78 9.02L41.78 9.02Q42.12 8.90 42.27 8.82L42.27 8.82L42.27 8.82Q42.42 8.74 42.58 8.56L42.58 8.56L42.58 8.56Q42.74 8.37 42.83 8.07L42.83 8.07L42.83 8.07Q42.92 7.77 43.01 7.23L43.01 7.23L43.31 7.23L43.31 8.86L45.23 8.86L45.19 9.23L43.29 9.23L43.28 12.34L43.28 12.34Q43.28 13.25 43.49 13.57L43.49 13.57L43.49 13.57Q43.70 13.90 44.17 13.90L44.17 13.90L44.17 13.90Q44.39 13.90 44.68 13.77L44.68 13.77L44.68 13.77Q44.96 13.64 45.12 13.51L45.12 13.51L45.29 13.38L45.40 13.61L45.40 13.61Q45.10 14.04 44.66 14.30L44.66 14.30L44.66 14.30Q44.21 14.56 43.78 14.56L43.78 14.56L43.78 14.56Q43.16 14.56 42.89 14.10L42.89 14.10L42.89 14.10Q42.62 13.64 42.62 12.74L42.62 12.74L42.64 9.21ZM52.40 14.40L48.99 14.40L49.02 14.11L50.10 13.90L50.10 6.51L48.99 6.36L49.05 6.12L49.05 6.12Q49.23 6.09 49.67 6.02L49.67 6.02L49.67 6.02Q50.12 5.94 50.35 5.91L50.35 5.91L50.35 5.91Q50.58 5.88 50.99 5.84L50.99 5.84L50.99 5.84Q51.40 5.81 51.82 5.81L51.82 5.81L51.82 5.81Q52.51 5.81 53.09 5.96L53.09 5.96L53.09 5.96Q53.68 6.10 54.14 6.40L54.14 6.40L54.14 6.40Q54.61 6.69 54.87 7.18L54.87 7.18L54.87 7.18Q55.13 7.66 55.13 8.29L55.13 8.29L55.13 8.29Q55.13 8.90 54.84 9.43L54.84 9.43L54.84 9.43Q54.56 9.97 54.10 10.33L54.10 10.33L54.10 10.33Q53.64 10.69 53.04 10.90L53.04 10.90L53.04 10.90Q52.44 11.10 51.80 11.10L51.80 11.10L51.80 11.10Q51.53 11.10 51.46 11.09L51.46 11.09L51.39 10.80L51.76 10.78L51.76 10.78Q52.42 10.75 52.92 10.55L52.92 10.55L52.92 10.55Q53.42 10.36 53.71 10.03L53.71 10.03L53.71 10.03Q54.00 9.70 54.14 9.30L54.14 9.30L54.14 9.30Q54.28 8.90 54.28 8.43L54.28 8.43L54.28 8.43Q54.28 7.98 54.11 7.57L54.11 7.57L54.11 7.57Q53.94 7.16 53.62 6.83L53.62 6.83L53.62 6.83Q53.30 6.50 52.78 6.31L52.78 6.31L52.78 6.31Q52.25 6.11 51.60 6.11L51.60 6.11L50.85 6.15L50.85 13.95L52.45 14.08L52.40 14.40ZM56.51 13.04L56.51 13.04L56.51 13.04Q56.51 13.47 56.77 13.79L56.77 13.79L56.77 13.79Q57.03 14.10 57.47 14.10L57.47 14.10L57.47 14.10Q57.94 14.10 58.34 13.83L58.34 13.83L58.34 13.83Q58.74 13.56 58.99 13.13L58.99 13.13L58.99 11.44L58.99 11.44Q58.54 11.51 58.20 11.58L58.20 11.58L58.20 11.58Q57.87 11.66 57.53 11.78L57.53 11.78L57.53 11.78Q57.20 11.90 56.99 12.06L56.99 12.06L56.99 12.06Q56.78 12.22 56.65 12.47L56.65 12.47L56.65 12.47Q56.51 12.72 56.51 13.04ZM55.83 13.24L55.83 13.24L55.83 13.24Q55.83 12.37 56.63 11.80L56.63 11.80L56.63 11.80Q57.42 11.23 58.99 11.14L58.99 11.14L58.99 10.87L58.99 10.87Q58.99 9.74 58.72 9.25L58.72 9.25L58.72 9.25Q58.45 8.75 57.69 8.75L57.69 8.75L57.69 8.75Q57.17 8.75 56.94 9.13L56.94 9.13L56.94 9.13Q56.71 9.52 56.62 10.23L56.62 10.23L56.62 10.23Q56.38 10.23 56.22 10.11L56.22 10.11L56.22 10.11Q56.06 9.99 56.06 9.78L56.06 9.78L56.06 9.78Q56.06 9.26 56.70 8.83L56.70 8.83L56.70 8.83Q57.34 8.40 58.05 8.40L58.05 8.40L58.05 8.40Q58.84 8.40 59.23 8.91L59.23 8.91L59.23 8.91Q59.61 9.43 59.61 10.51L59.61 10.51L59.61 12.83L59.61 12.83Q59.61 13.03 59.61 13.14L59.61 13.14L59.61 13.14Q59.62 13.24 59.63 13.40L59.63 13.40L59.63 13.40Q59.65 13.56 59.69 13.64L59.69 13.64L59.69 13.64Q59.73 13.73 59.79 13.83L59.79 13.83L59.79 13.83Q59.86 13.92 59.96 13.98L59.96 13.98L59.96 13.98Q60.07 14.03 60.21 14.05L60.21 14.05L60.66 14.14L60.63 14.38L60.63 14.38Q60.31 14.52 59.94 14.52L59.94 14.52L59.94 14.52Q59.53 14.52 59.31 14.25L59.31 14.25L59.31 14.25Q59.08 13.99 59.08 13.60L59.08 13.60L59.08 13.51L59.05 13.51L59.05 13.51Q58.92 13.88 58.41 14.23L58.41 14.23L58.41 14.23Q57.90 14.57 57.25 14.57L57.25 14.57L57.25 14.57Q56.68 14.57 56.25 14.21L56.25 14.21L56.25 14.21Q55.83 13.84 55.83 13.24ZM64.63 14.40L61.38 14.40L61.41 14.19L62.48 14.01L62.48 9.02L61.41 8.83L61.43 8.63L63.02 8.50L63.09 8.56L63.03 10.34L63.09 10.34L63.09 10.34Q63.32 9.46 63.77 8.91L63.77 8.91L63.77 8.91Q64.21 8.37 64.76 8.37L64.76 8.37L64.76 8.37Q65.08 8.37 65.27 8.51L65.27 8.51L65.27 8.51Q65.46 8.66 65.46 8.89L65.46 8.89L65.46 8.89Q65.46 9.01 65.37 9.15L65.37 9.15L65.37 9.15Q65.28 9.29 65.15 9.38L65.15 9.38L65.15 9.38Q64.97 9.17 64.81 9.09L64.81 9.09L64.81 9.09Q64.65 9.00 64.43 9.00L64.43 9.00L64.43 9.00Q64.16 9.00 63.93 9.22L63.93 9.22L63.93 9.22Q63.70 9.44 63.55 9.82L63.55 9.82L63.55 9.82Q63.40 10.19 63.30 10.61L63.30 10.61L63.30 10.61Q63.20 11.02 63.13 11.50L63.13 11.50L63.13 14.02L64.69 14.15L64.63 14.40ZM66.85 13.04L66.85 13.04L66.85 13.04Q66.85 13.47 67.11 13.79L67.11 13.79L67.11 13.79Q67.37 14.10 67.81 14.10L67.81 14.10L67.81 14.10Q68.28 14.10 68.68 13.83L68.68 13.83L68.68 13.83Q69.08 13.56 69.33 13.13L69.33 13.13L69.33 11.44L69.33 11.44Q68.87 11.51 68.54 11.58L68.54 11.58L68.54 11.58Q68.21 11.66 67.87 11.78L67.87 11.78L67.87 11.78Q67.53 11.90 67.32 12.06L67.32 12.06L67.32 12.06Q67.12 12.22 66.98 12.47L66.98 12.47L66.98 12.47Q66.85 12.72 66.85 13.04ZM66.17 13.24L66.17 13.24L66.17 13.24Q66.17 12.37 66.96 11.80L66.96 11.80L66.96 11.80Q67.76 11.23 69.33 11.14L69.33 11.14L69.33 10.87L69.33 10.87Q69.33 9.74 69.06 9.25L69.06 9.25L69.06 9.25Q68.78 8.75 68.02 8.75L68.02 8.75L68.02 8.75Q67.50 8.75 67.28 9.13L67.28 9.13L67.28 9.13Q67.05 9.52 66.96 10.23L66.96 10.23L66.96 10.23Q66.72 10.23 66.56 10.11L66.56 10.11L66.56 10.11Q66.40 9.99 66.40 9.78L66.40 9.78L66.40 9.78Q66.40 9.26 67.04 8.83L67.04 8.83L67.04 8.83Q67.68 8.40 68.39 8.40L68.39 8.40L68.39 8.40Q69.18 8.40 69.56 8.91L69.56 8.91L69.56 8.91Q69.95 9.43 69.95 10.51L69.95 10.51L69.95 12.83L69.95 12.83Q69.95 13.03 69.95 13.14L69.95 13.14L69.95 13.14Q69.95 13.24 69.97 13.40L69.97 13.40L69.97 13.40Q69.99 13.56 70.02 13.64L70.02 13.64L70.02 13.64Q70.06 13.73 70.13 13.83L70.13 13.83L70.13 13.83Q70.19 13.92 70.30 13.98L70.30 13.98L70.30 13.98Q70.40 14.03 70.55 14.05L70.55 14.05L71.00 14.14L70.96 14.38L70.96 14.38Q70.64 14.52 70.27 14.52L70.27 14.52L70.27 14.52Q69.87 14.52 69.64 14.25L69.64 14.25L69.64 14.25Q69.42 13.99 69.42 13.60L69.42 13.60L69.42 13.51L69.38 13.51L69.38 13.51Q69.25 13.88 68.75 14.23L68.75 14.23L68.75 14.23Q68.24 14.57 67.59 14.57L67.59 14.57L67.59 14.57Q67.01 14.57 66.59 14.21L66.59 14.21L66.59 14.21Q66.17 13.84 66.17 13.24ZM72.43 11.38L72.43 11.38L72.43 11.38Q72.43 12.63 72.88 13.35L72.88 13.35L72.88 13.35Q73.34 14.08 74.25 14.08L74.25 14.08L74.25 14.08Q74.68 14.08 75.16 13.78L75.16 13.78L75.16 13.78Q75.65 13.49 75.93 13.10L75.93 13.10L75.93 9.58L75.93 9.58Q75.63 9.20 75.19 9.00L75.19 9.00L75.19 9.00Q74.75 8.80 74.25 8.80L74.25 8.80L74.25 8.80Q73.51 8.80 72.97 9.48L72.97 9.48L72.97 9.48Q72.43 10.15 72.43 11.38ZM71.74 11.76L71.74 11.76L71.74 11.76Q71.74 10.99 71.98 10.35L71.98 10.35L71.98 10.35Q72.21 9.71 72.61 9.29L72.61 9.29L72.61 9.29Q73.01 8.87 73.52 8.63L73.52 8.63L73.52 8.63Q74.03 8.40 74.59 8.40L74.59 8.40L74.59 8.40Q74.92 8.40 75.33 8.51L75.33 8.51L75.33 8.51Q75.74 8.62 75.91 8.76L75.91 8.76L75.98 8.76L75.87 7.83L75.87 6.26L74.83 6.05L74.87 5.84L76.49 5.70L76.55 5.77L76.55 12.83L76.55 12.83Q76.55 13.14 76.59 13.36L76.59 13.36L76.59 13.36Q76.63 13.58 76.69 13.70L76.69 13.70L76.69 13.70Q76.74 13.82 76.84 13.90L76.84 13.90L76.84 13.90Q76.93 13.99 76.99 14.01L76.99 14.01L76.99 14.01Q77.05 14.03 77.16 14.05L77.16 14.05L77.57 14.14L77.53 14.39L77.53 14.39Q77.21 14.53 76.88 14.53L76.88 14.53L76.88 14.53Q76.43 14.53 76.21 14.27L76.21 14.27L76.21 14.27Q76.00 14 76.00 13.55L76.00 13.55L76.00 13.50L75.93 13.50L75.93 13.50Q75.60 13.95 75.07 14.25L75.07 14.25L75.07 14.25Q74.53 14.55 73.88 14.55L73.88 14.55L73.88 14.55Q72.93 14.55 72.34 13.82L72.34 13.82L72.34 13.82Q71.74 13.08 71.74 11.76ZM79.19 6.24L79.19 6.24L79.19 6.24Q79.19 5.58 79.62 5.58L79.62 5.58L79.62 5.58Q80.06 5.58 80.06 6.24L80.06 6.24L80.06 6.24Q80.06 6.94 79.63 6.94L79.63 6.94L79.63 6.94Q79.19 6.94 79.19 6.24ZM80.99 14.40L78.21 14.40L78.30 14.18L79.32 13.99L79.32 9.01L78.28 8.82L78.30 8.63L79.91 8.50L79.97 8.56L79.97 13.99L81.06 14.17L80.99 14.40ZM81.73 13.25L81.73 13.25L81.73 13.25Q81.73 12.78 82.28 12.65L82.28 12.65L82.28 12.65Q82.41 13.56 82.74 13.92L82.74 13.92L82.74 13.92Q83.07 14.29 83.76 14.29L83.76 14.29L83.76 14.29Q84.25 14.29 84.57 14L84.57 14L84.57 14Q84.90 13.71 84.90 13.34L84.90 13.34L84.90 13.34Q84.90 13.04 84.69 12.75L84.69 12.75L84.69 12.75Q84.48 12.46 84.16 12.25L84.16 12.25L84.16 12.25Q83.85 12.04 83.48 11.79L83.48 11.79L83.48 11.79Q83.12 11.54 82.80 11.30L82.80 11.30L82.80 11.30Q82.49 11.06 82.28 10.71L82.28 10.71L82.28 10.71Q82.07 10.36 82.07 9.96L82.07 9.96L82.07 9.96Q82.07 9.30 82.51 8.85L82.51 8.85L82.51 8.85Q82.95 8.40 83.81 8.40L83.81 8.40L83.81 8.40Q84.45 8.40 84.87 8.79L84.87 8.79L84.87 8.79Q85.29 9.17 85.29 9.67L85.29 9.67L85.29 9.67Q85.29 10.21 84.81 10.26L84.81 10.26L84.75 10.02L84.75 10.02Q84.55 9.27 84.28 8.99L84.28 8.99L84.28 8.99Q84 8.70 83.64 8.70L83.64 8.70L83.64 8.70Q83.15 8.70 82.88 8.93L82.88 8.93L82.88 8.93Q82.61 9.15 82.61 9.58L82.61 9.58L82.61 9.58Q82.61 9.88 82.77 10.15L82.77 10.15L82.77 10.15Q82.93 10.42 83.18 10.63L83.18 10.63L83.18 10.63Q83.44 10.84 83.75 11.04L83.75 11.04L83.75 11.04Q84.05 11.25 84.37 11.45L84.37 11.45L84.37 11.45Q84.68 11.66 84.93 11.88L84.93 11.88L84.93 11.88Q85.19 12.11 85.35 12.39L85.35 12.39L85.35 12.39Q85.51 12.67 85.51 13.00L85.51 13.00L85.51 13.00Q85.51 13.73 84.93 14.19L84.93 14.19L84.93 14.19Q84.36 14.64 83.54 14.64L83.54 14.64L83.54 14.64Q82.78 14.64 82.26 14.26L82.26 14.26L82.26 14.26Q81.73 13.88 81.73 13.25ZM86.98 11.03L86.98 11.03L89.63 10.88L89.63 10.88Q89.69 10.75 89.69 10.26L89.69 10.26L89.69 10.26Q89.69 9.65 89.34 9.23L89.34 9.23L89.34 9.23Q88.98 8.80 88.47 8.80L88.47 8.80L88.47 8.80Q87.79 8.80 87.39 9.39L87.39 9.39L87.39 9.39Q86.98 9.98 86.98 11.03ZM86.26 11.59L86.26 11.59L86.26 11.59Q86.26 10.12 87.01 9.27L87.01 9.27L87.01 9.27Q87.76 8.42 88.81 8.42L88.81 8.42L88.81 8.42Q89.58 8.42 89.99 8.90L89.99 8.90L89.99 8.90Q90.39 9.37 90.39 10.42L90.39 10.42L90.39 10.42Q90.39 10.82 90.27 11.31L90.27 11.31L86.97 11.36L86.97 11.36Q86.97 11.94 87.08 12.42L87.08 12.42L87.08 12.42Q87.20 12.89 87.44 13.26L87.44 13.26L87.44 13.26Q87.68 13.62 88.07 13.83L88.07 13.83L88.07 13.83Q88.46 14.03 88.98 14.03L88.98 14.03L88.98 14.03Q89.89 14.03 90.46 13.46L90.46 13.46L90.58 13.69L90.58 13.69Q90.27 14.10 89.76 14.35L89.76 14.35L89.76 14.35Q89.24 14.59 88.59 14.59L88.59 14.59L88.59 14.59Q87.56 14.59 86.91 13.83L86.91 13.83L86.91 13.83Q86.26 13.07 86.26 11.59Z"></path></g><defs data-v-423bf9ae=""><linearGradient data-v-423bf9ae="" gradientTransform="rotate(25)" id="45719afc-39d4-4963-8419-fd1154735400" x1="0%" y1="0%" x2="100%" y2="0%"><stop data-v-423bf9ae="" offset="0%" style="stop-color: rgb(102, 108, 53); stop-opacity: 1;"></stop><stop data-v-423bf9ae="" offset="100%" style="stop-color: rgb(119, 214, 54); stop-opacity: 1;"></stop></linearGradient></defs><g data-v-423bf9ae="" id="3d673181-c9d7-434f-b1cd-7e8553d4cfa4" transform="matrix(1.271267056465149,0,0,1.271267056465149,-14.806987762451172,-17.960969924926758)" stroke="none" fill="url(#45719afc-39d4-4963-8419-fd1154735400)"><path d="M60.47 53.914L43.344 83.242a4.369 4.369 0 0 1-5.958 1.565L16.023 72.332a4.369 4.369 0 0 1-1.565-5.958l2.015-3.451 12.422 12.422c2.789 2.789 7.354 2.789 10.144 0L60.47 53.914zm-15.991-7.443a2.33 2.33 0 1 0 4.66 0 2.33 2.33 0 0 0-4.66 0zM27.31 50.255a2.33 2.33 0 1 0 4.66 0 2.33 2.33 0 0 0-4.66 0zm60.934-14.057l-4.19 1.016c-1.673-6.927-4.566-11.102-8.569-12.415-1.313-.422-2.689-.547-4.065-.438l.328 9.554c.078 2.408-1.251 5.785-2.955 7.474L36.879 73.303c-1.704 1.704-4.503 1.704-6.207 0L13.035 55.665c-1.704-1.704-1.704-4.503 0-6.208L44.932 17.56c1.704-1.704 5.082-3.033 7.49-2.955l14.291.485c1.704.063 3.221 1.095 4.003 2.549-3.049.203-6.067 1.141-9.554 2.721-4.128 1.861-6.692 3.925-7.709 4.8a4.785 4.785 0 0 0-1.892 3.831c0 2.674 2.173 4.847 4.847 4.847a4.85 4.85 0 0 0 4.784-5.629c-2.048 1.282-3.377 2.392-3.409 2.424v-.016c-.36.313-.844.5-1.376.5a2.136 2.136 0 0 1-2.142-2.142c0-.641.281-1.235.751-1.626v-.016c.485-.391 11.836-9.882 21.812-6.63 5.521 1.814 9.367 7.021 11.416 15.495zM33.612 54.227a5.625 5.625 0 0 0 0-7.943 5.625 5.625 0 0 0-7.943 0 5.625 5.625 0 0 0 0 7.943c2.204 2.189 5.753 2.189 7.943 0zm7.051 5.519l-2.126-22.985a1.367 1.367 0 0 0-1.485-1.235 1.367 1.367 0 0 0-1.235 1.485l2.126 22.985a1.367 1.367 0 0 0 1.485 1.235c.751-.062 1.298-.734 1.235-1.485zM50.78 42.5a5.625 5.625 0 0 0-7.943 0 5.625 5.625 0 0 0 0 7.943 5.625 5.625 0 0 0 7.943 0 5.625 5.625 0 0 0 0-7.943z"></path></g><!----></svg>